<svg width="15" height="16" viewBox="0 0 15 16" fill="none" xmlns="http://www.w3.org/2000/svg">
<path d="M11.6667 0.199951H3.33333C1.49167 0.199951 0 1.69162 0 3.53328V11.8666C0 13.7083 1.49167 15.2 3.33333 15.2H13.3333C14.2583 15.2 15 14.4583 15 13.5333V5.19995C15 4.75792 14.8244 4.334 14.5118 4.02144C14.1993 3.70888 13.7754 3.53328 13.3333 3.53328V1.86662C13.3333 1.42459 13.1577 1.00067 12.8452 0.688106C12.5326 0.375546 12.1087 0.199951 11.6667 0.199951ZM11.6667 1.86662V3.53328H3.33333C2.725 3.53328 2.15833 3.69995 1.66667 3.98328V3.53328C1.66667 2.61662 2.41667 1.86662 3.33333 1.86662M10.4167 10.6166C9.725 10.6166 9.16667 10.0583 9.16667 9.36662C9.16667 8.67495 9.725 8.11662 10.4167 8.11662C11.1083 8.11662 11.6667 8.67495 11.6667 9.36662C11.6667 10.0583 11.1083 10.6166 10.4167 10.6166Z" fill="white"/>
</svg>
